<svg height="512pt" viewBox="0 0 512 512.00031" width="512pt" xmlns="http://www.w3.org/2000/svg"><path d="m511.890625 117.992188c0-32.050782-25.265625-58.3125-56.921875-59.917969-3.152344-13.738281-10.144531-26.332031-20.402344-36.457031-14.121094-13.941407-32.824218-21.617188-52.667968-21.617188s-38.546876 7.675781-52.667969 21.613281c-10.261719 10.128907-17.25 22.722657-20.402344 36.460938-31.65625 1.605469-56.921875 27.867187-56.921875 59.917969 0 15.261718 5.789062 29.726562 15.914062 40.691406-4.25 10.089844-5.949218 21.199218-4.726562 32.289062l2.429688 22.039063c-25.394532-3.976563-51.898438 3.644531-75.613282 21.285156v-59.308594c0-8.285156-6.714844-15-15-15-8.28125 0-14.996094 6.714844-14.996094 15v59.308594c-26.425781-19.65625-56.324218-26.890625-84.28125-19.472656-23.433593 6.214843-43.015624 21.96875-56.628906 45.550781-20.117187 34.84375-24.5625 83.59375-11.894531 130.402344 10.390625 38.386718 30.898437 71.816406 57.75 94.128906 28.335937 23.546875 60.398437 32.148438 90.273437 24.222656 6.898438-1.832031 13.519532-4.523437 19.777344-8.039062 6.261719 3.515625 12.882813 6.207031 19.78125 8.039062 7.25 1.921875 14.625 2.871094 22.046875 2.871094 23.164063 0 46.765625-9.261719 68.226563-27.09375 6.222656-5.175781 12.105468-10.953125 17.601562-17.246094 16.578125 27.003906 46.25 44.304688 79.332032 44.304688 47.5625 0 87.359374-35.652344 92.570312-82.929688l13.609375-123.503906c0-.011719.003906-.019531.003906-.03125l6.609375-59.972656c0-.003906 0-.011719 0-.019532l6.011719-54.53125c1.222656-11.09375-.480469-22.203124-4.726563-32.292968 10.125-10.964844 15.914063-25.429688 15.914063-40.691406zm-199.988281-29.996094c2.226562 0 4.476562.253906 6.691406.757812 4.414062 1.003906 9.042969-.035156 12.601562-2.835937 3.558594-2.796875 5.660157-7.050781 5.726563-11.574219.347656-24.453125 20.523437-44.347656 44.976563-44.347656 24.453124 0 44.628906 19.894531 44.976562 44.347656.0625 4.523438 2.167969 8.777344 5.726562 11.578125 3.558594 2.796875 8.1875 3.835937 12.601563 2.832031 2.214844-.503906 4.464844-.757812 6.691406-.757812 16.539063 0 29.996094 13.457031 29.996094 29.996094 0 5.660156-1.59375 11.101562-4.484375 15.773437-11.527344-9.472656-26.085938-14.773437-41.191406-14.773437h-108.632813c-15.105469 0-29.664062 5.300781-41.195312 14.769531-2.886719-4.671875-4.480469-10.109375-4.480469-15.769531 0-16.539063 13.457031-29.996094 29.996094-29.996094zm-46.109375 373.835937c-20.660157 17.167969-43.179688 23.667969-63.40625 18.300781-6.632813-1.757812-12.898438-4.773437-18.625-8.960937-2.636719-1.925781-5.742188-2.886719-8.851563-2.886719-3.105468 0-6.210937.960938-8.847656 2.886719-5.730469 4.1875-11.992188 7.203125-18.621094 8.960937-20.234375 5.363282-42.75-1.132812-63.410156-18.300781-22.144531-18.398437-39.175781-46.414062-47.96875-78.894531-10.628906-39.269531-7.292969-79.480469 8.917969-107.5625 9.539062-16.519531 22.796875-27.429688 38.34375-31.554688 26.238281-6.964843 56.144531 6.152344 80.011719 35.070313 0 0 .003906.003906.007812.007813 0 .003906.003906.003906.003906.003906.328125.398437.683594.777344 1.054688 1.140625.125.125.257812.234375.386718.351562.253907.234375.511719.464844.785157.683594.152343.121094.308593.230469.464843.347656.265626.195313.539063.386719.824219.566407.15625.101562.316407.195312.476563.292968.300781.175782.605468.339844.914062.492188.15625.078125.308594.152344.464844.226562.335938.148438.675781.285156 1.023438.414063.144531.050781.289062.109375.4375.160156.367187.121094.742187.222656 1.121093.316406.136719.035157.273438.074219.410157.105469.398437.085938.804687.148438 1.214843.203125.125.019531.246094.042969.371094.058594.53125.054687 1.070313.089843 1.617187.089843.542969 0 1.082032-.035156 1.613282-.089843.125-.015625.25-.039063.371094-.058594.410156-.054687.816406-.117187 1.214843-.203125.140625-.03125.277344-.070312.414063-.105469.378906-.09375.75-.195312 1.117187-.316406.148438-.050781.292969-.109375.441407-.160156.34375-.128907.6875-.265625 1.019531-.414063.15625-.074218.3125-.148437.464843-.226562.3125-.152344.617188-.316406.914063-.492188.160156-.09375.320313-.191406.480469-.292968.28125-.179688.554687-.371094.824218-.566407.15625-.117187.3125-.226562.460938-.347656.273438-.21875.53125-.449219.789062-.683594.128907-.117187.261719-.226562.386719-.351562.367188-.363281.722657-.742188 1.050781-1.140625.003907 0 .003907 0 .003907-.003906h.003906c0-.003907.003906-.007813.003906-.007813 23.871094-28.921875 53.78125-42.03125 80.011719-35.070313 15.546875 4.125 28.808594 15.035157 38.34375 31.554688 16.214844 28.082031 19.546875 68.292969 8.917969 107.5625-4.597657 16.988281-11.46875 32.738281-20.128907 46.546875-.171874.253906-.339843.511719-.492187.773437-7.796875 12.269532-17.003906 22.980469-27.347656 31.574219zm178.859375-36.082031c-3.53125 32.050781-30.511719 56.21875-62.753906 56.21875-27.03125 0-50.710938-17.03125-59.515626-42.082031 8.664063-14.933594 15.566407-31.496094 20.332032-49.109375 12.667968-46.808594 8.222656-95.558594-11.894532-130.402344-8.914062-15.441406-20.402343-27.5-33.839843-35.746094l-4.070313-36.9375c-.941406-8.5625 1.199219-16.855468 6.054688-23.761718.054687-.082032.121094-.15625.175781-.238282.042969-.0625.078125-.128906.117187-.195312.726563-.996094 1.503907-1.964844 2.34375-2.902344 6.703126-7.484375 15.929688-11.605469 25.976563-11.605469h108.636719c10.046875 0 19.273437 4.121094 25.976562 11.605469.835938.9375 1.617188 1.90625 2.34375 2.902344.039063.0625.074219.132812.117188.195312.042968.066406.097656.121094.140625.183594 4.878906 6.917969 7.035156 15.230469 6.089843 23.816406l-4.550781 41.292969h-52.4375c-8.28125 0-14.996093 6.714844-14.996093 15 0 8.28125 6.714843 15 14.996093 15h49.132813l-3.304688 29.996094h-25.828125c-8.285156 0-15 6.714843-15 15 0 8.28125 6.714844 15 15 15h22.523438zm0 0"/></svg>