<?xml version="1.0" encoding="iso-8859-1"?>
<!-- Generator: Adobe Illustrator 19.0.0, SVG Export Plug-In . SVG Version: 6.00 Build 0)  -->
<svg version="1.1" id="Layer_1" xmlns="http://www.w3.org/2000/svg" xmlns:xlink="http://www.w3.org/1999/xlink" x="0px" y="0px"
	 viewBox="0 0 512 512" style="enable-background:new 0 0 512 512;" xml:space="preserve">
<g>
	<g>
		<path d="M381.622,140.735c-2.994-3.259-8.066-3.476-11.327-0.484c-3.261,2.995-3.478,8.066-0.484,11.328
			c26.21,28.551,40.645,65.635,40.645,104.421c0,85.167-69.288,154.455-154.455,154.455S101.545,341.167,101.545,256
			S170.833,101.545,256,101.545c32.284,0,63.205,9.855,89.419,28.5c3.608,2.569,8.614,1.72,11.178-1.887
			c2.566-3.608,1.722-8.613-1.887-11.178C325.768,96.393,291.634,85.511,256,85.511c-94.007,0-170.489,76.482-170.489,170.489
			S161.993,426.489,256,426.489S426.489,350.007,426.489,256C426.489,213.188,410.555,172.252,381.622,140.735z"/>
	</g>
</g>
<g>
	<g>
		<path d="M256,145.37c-61.002,0-110.63,49.629-110.63,110.63c0,19.45,5.121,38.582,14.808,55.326
			c2.217,3.831,7.121,5.141,10.954,2.924c3.832-2.218,5.142-7.122,2.924-10.954c-8.278-14.307-12.654-30.661-12.654-47.296
			c0-52.161,42.436-94.597,94.597-94.597s94.597,42.436,94.597,94.597S308.161,350.597,256,350.597
			c-23.315,0-45.711-8.554-63.066-24.088c-3.301-2.956-8.368-2.672-11.32,0.626c-2.953,3.299-2.672,8.367,0.626,11.321
			c20.298,18.168,46.494,28.174,73.759,28.174c61.002,0,110.63-49.629,110.63-110.63S317.002,145.37,256,145.37z"/>
	</g>
</g>
<g>
	<g>
		<path d="M76.426,102.614c-4.428,0-8.017,3.588-8.017,8.017v59.858c0,5.01-4.076,9.086-9.086,9.086h-9.086V110.63
			c0-4.428-3.588-8.017-8.017-8.017c-4.428,0-8.017,3.588-8.017,8.017v68.944h-9.086c-5.01,0-9.086-4.076-9.086-9.086V110.63
			c0-4.428-3.588-8.017-8.017-8.017c-4.428,0-8.017,3.588-8.017,8.017v59.858c0,13.851,11.268,25.119,25.119,25.119h9.086V299.29
			h-9.086c-4.428,0-8.017,3.588-8.017,8.017v76.96c0,13.851,11.268,25.119,25.119,25.119c13.851,0,25.119-11.268,25.119-25.119
			v-76.96c0-4.428-3.588-8.017-8.017-8.017h-9.086V195.608h9.086c13.851,0,25.119-11.268,25.119-25.119V110.63
			C84.443,106.202,80.854,102.614,76.426,102.614z M51.307,315.324v68.944c0,5.01-4.076,9.086-9.086,9.086
			c-5.01,0-9.086-4.076-9.086-9.086v-68.944H51.307z"/>
	</g>
</g>
<g>
	<g>
		<path d="M506.943,103.18c-3.053-1.214-6.537-0.439-8.792,1.949c-10.282,10.901-19.279,22.898-26.743,35.658
			c-26.719,45.69-29.28,92.874-26.723,124.412c0.338,4.162,3.815,7.369,7.991,7.369h9.086v111.699
			c0,13.851,11.268,25.119,25.119,25.119c13.851,0,25.119-11.268,25.119-25.119V110.63C512,107.346,509.996,104.392,506.943,103.18z
			 M469.778,256.534h-9.585c-1.372-28.927,2.434-68.967,25.057-107.653c3.26-5.574,6.84-10.991,10.716-16.219V299.29h-18.171
			v-34.739C477.794,260.123,474.206,256.534,469.778,256.534z M495.967,384.267c0,5.01-4.076,9.086-9.086,9.086
			c-5.01,0-9.086-4.076-9.086-9.086v-68.944h18.171V384.267z"/>
	</g>
</g>
<g>
	<g>
		<path d="M256,192.401c-29.835,0-50.772,49.582-50.772,76.426c0,27.995,22.777,50.772,50.772,50.772s50.772-22.777,50.772-50.772
			C306.772,241.983,285.835,192.401,256,192.401z M256,208.434c7.239,0,14.652,7.229,20.764,17.142
			c-6.328,3.485-13.393,5.305-20.764,5.305s-14.436-1.82-20.764-5.305C241.348,215.663,248.761,208.434,256,208.434z
			 M228.021,239.911c8.55,4.603,18.063,7.003,27.979,7.003s19.429-2.402,27.979-7.003c1.515,3.702,2.821,7.473,3.872,11.166
			c-8.193,8.938-19.596,14.009-31.851,14.009s-23.658-5.071-31.85-14.01C225.201,247.383,226.506,243.613,228.021,239.911z
			 M256,303.566c-18.786,0-34.125-14.99-34.711-33.637c9.97,7.226,22.009,11.19,34.711,11.19c12.703,0,24.742-3.965,34.711-11.19
			C290.125,288.576,274.786,303.566,256,303.566z"/>
	</g>
</g>
<g>
</g>
<g>
</g>
<g>
</g>
<g>
</g>
<g>
</g>
<g>
</g>
<g>
</g>
<g>
</g>
<g>
</g>
<g>
</g>
<g>
</g>
<g>
</g>
<g>
</g>
<g>
</g>
<g>
</g>
</svg>
